<svg width="1500" height="1080" viewBox="0 0 1500 1080" fill="none" xmlns="http://www.w3.org/2000/svg">
<rect width="1500" height="1080" fill="#E5E5E5"/>
<path d="M626.877 324.096C438.748 324.096 286.238 476.208 286.238 663.848H967.516C967.516 476.208 815.007 324.096 626.877 324.096Z" fill="#C4C4C4"/>
<path d="M622.714 128.053C316.37 128.053 68.03 375.747 68.03 681.292H1029.77H1177.4C1177.4 375.747 929.057 128.053 622.714 128.053Z" fill="#D7D7D7" stroke="#C4C4C4" stroke-width="20"/>
<g filter="url(#filter0_i)">
<path d="M623.546 452.022C497.053 452.022 394.51 554.67 394.51 681.292H791.626H852.582C852.582 554.67 750.039 452.022 623.546 452.022Z" fill="#FF536F"/>
</g>
<g filter="url(#filter1_i)">
<ellipse cx="623.546" cy="632.282" rx="49.1386" ry="49.0107" fill="#FEFEFE"/>
</g>
<ellipse cx="623.546" cy="663.848" rx="467.233" ry="466.017" stroke="white" stroke-width="20"/>
<ellipse cx="623.546" cy="663.848" rx="378.95" ry="377.964" stroke="white" stroke-width="20"/>
<ellipse cx="623.546" cy="680.462" rx="312.322" ry="311.508" stroke="white" stroke-width="20"/>
<g filter="url(#filter2_i)">
<rect x="123.567" y="647.159" width="942.543" height="1155.33" rx="90" fill="#11CAE6"/>
</g>
<rect x="123.567" y="647.159" width="942.543" height="1155.33" rx="90" stroke="#18356C" stroke-width="20"/>
<g filter="url(#filter3_i)">
<rect x="95.0054" y="924.121" width="144.396" height="572.916" fill="#11CAE6"/>
</g>
<rect x="95.0054" y="924.121" width="144.396" height="572.916" stroke="#18356C" stroke-width="20"/>
<g filter="url(#filter4_i)">
<rect x="961.383" y="924.121" width="144.396" height="572.916" fill="#11CAE6"/>
</g>
<rect x="961.383" y="924.121" width="144.396" height="572.916" stroke="#18356C" stroke-width="20"/>
<g filter="url(#filter5_i)">
<rect x="34.7078" y="639.246" width="198.347" height="305.45" rx="25" fill="#11CAE6"/>
</g>
<rect x="34.7078" y="639.246" width="198.347" height="305.45" rx="25" stroke="#18356C" stroke-width="20"/>
<g filter="url(#filter6_i)">
<rect x="967.73" y="639.246" width="198.347" height="305.45" rx="25" fill="#11CAE6"/>
</g>
<rect x="967.73" y="639.246" width="198.347" height="305.45" rx="25" stroke="#18356C" stroke-width="20"/>
<g filter="url(#filter7_i)">
<path d="M589.627 1503.37C761.997 1503.37 911.209 1503.37 911.209 949.444H287.004C287.004 1503.37 417.258 1503.37 589.627 1503.37Z" fill="#18356C"/>
</g>
<g filter="url(#filter8_i)">
<path d="M470.709 231.821L404.623 135.113C397.798 125.125 401.341 111.374 412.364 106.388C590.778 25.6946 758.199 66.8264 837.412 105.826C847.983 111.031 850.624 124.449 843.643 133.942L771.24 232.392C766.291 239.123 757.686 242.044 749.554 240.128C720.613 233.309 668.407 224.277 616.321 225.395C565.534 226.485 518.758 234.381 492.572 240.212C484.248 242.066 475.521 238.862 470.709 231.821Z" fill="#FF536F"/>
</g>
<path d="M470.709 231.821L404.623 135.113C397.798 125.125 401.341 111.374 412.364 106.388C590.778 25.6946 758.199 66.8264 837.412 105.826C847.983 111.031 850.624 124.449 843.643 133.942L771.24 232.392C766.291 239.123 757.686 242.044 749.554 240.128C720.613 233.309 668.407 224.277 616.321 225.395C565.534 226.485 518.758 234.381 492.572 240.212C484.248 242.066 475.521 238.862 470.709 231.821Z" stroke="#18356C" stroke-width="20"/>
<path d="M854.276 1046.24C865.35 1046.24 874.35 1037.28 874.35 1026.2C874.35 1015.12 865.35 1006.17 854.276 1006.17C843.202 1006.17 834.202 1015.12 834.202 1026.2C834.202 1037.28 843.202 1046.24 854.276 1046.24Z" fill="#FFF7D9" stroke="#FDC169" stroke-width="10"/>
<path d="M346.509 1046.24C357.583 1046.24 366.583 1037.28 366.583 1026.2C366.583 1015.12 357.583 1006.17 346.509 1006.17C335.434 1006.17 326.435 1015.12 326.435 1026.2C326.435 1037.28 335.434 1046.24 346.509 1046.24Z" fill="white" stroke="#FDC169" stroke-width="10"/>
<g filter="url(#filter9_i)">
<rect x="386.971" y="989.01" width="426.842" height="163.012" rx="25" fill="#FFE270"/>
</g>
<path d="M471.07 132.01C471.07 143.373 461.835 152.584 450.442 152.584C439.049 152.584 429.814 143.373 429.814 132.01C429.814 120.647 439.049 111.436 450.442 111.436C461.835 111.436 471.07 120.647 471.07 132.01Z" fill="white"/>
<g filter="url(#filter10_i)">
<rect x="463.137" y="1064.98" width="101.553" height="18.9917" rx="9.49584" fill="#FFF7D9"/>
</g>
<g filter="url(#filter11_i)">
<rect x="636.095" y="1064.98" width="101.553" height="18.9917" rx="9.49584" fill="#FFF7D9"/>
</g>
<ellipse cx="602.772" cy="1076.06" rx="11.1074" ry="11.0785" fill="#FFF7D9" stroke="white" stroke-width="5"/>
<g filter="url(#filter12_i)">
<rect x="463.137" y="1011.17" width="274.512" height="44.3139" rx="22.157" fill="#FFF7D9"/>
</g>
<ellipse cx="1237.48" cy="822.833" rx="74.5783" ry="74.3841" fill="#049DBD" stroke="#18356C" stroke-width="20"/>
<rect x="1159.73" y="655.073" width="82.5122" height="269.049" rx="10" fill="#049DBD" stroke="#18356C" stroke-width="20"/>
<path d="M1307.73 821.479C1343.03 822.572 1372.43 821.527 1372.36 718.379" stroke="#18356C" stroke-width="20"/>
<g filter="url(#filter13_i)">
<ellipse cx="1376.32" cy="632.125" rx="92.8262" ry="92.5844" fill="#FF536F"/>
</g>
<ellipse cx="1426.31" cy="585.437" rx="15.8677" ry="15.8264" fill="white"/>
<g filter="url(#filter14_d)">
<g filter="url(#filter15_i)">
<path d="M24 501.155C24 487.348 35.1929 476.156 49 476.156H352.392C366.199 476.156 377.392 487.348 377.392 501.156V924.444C377.392 938.251 366.199 949.444 352.392 949.444H49C35.1929 949.444 24 938.251 24 924.444V501.155Z" fill="#F2F2F2"/>
</g>
<path d="M24 501.155C24 487.348 35.1929 476.156 49 476.156H352.392C366.199 476.156 377.392 487.348 377.392 501.156V924.444C377.392 938.251 366.199 949.444 352.392 949.444H49C35.1929 949.444 24 938.251 24 924.444V501.155Z" stroke="#18356C" stroke-width="20"/>
<g filter="url(#filter16_i)">
<path d="M457.506 501.155C457.506 487.348 468.698 476.156 482.506 476.156H785.897C799.704 476.156 810.897 487.348 810.897 501.156V924.444C810.897 938.251 799.704 949.444 785.897 949.444H482.506C468.698 949.444 457.506 938.251 457.506 924.444V501.155Z" fill="#F2F2F2"/>
</g>
<path d="M457.506 501.155C457.506 487.348 468.698 476.156 482.506 476.156H785.897C799.704 476.156 810.897 487.348 810.897 501.156V924.444C810.897 938.251 799.704 949.444 785.897 949.444H482.506C468.698 949.444 457.506 938.251 457.506 924.444V501.155Z" stroke="#18356C" stroke-width="20"/>
<g filter="url(#filter17_i)">
<rect x="895.399" y="476.156" width="353.392" height="473.289" rx="25" fill="#F2F2F2"/>
</g>
<rect x="895.399" y="476.156" width="353.392" height="473.289" rx="25" stroke="#18356C" stroke-width="20"/>
</g>
<defs>
<filter id="filter0_i" x="394.51" y="452.022" width="458.072" height="229.27" filterUnits="userSpaceOnUse" color-interpolation-filters="sRGB">
<feFlood flood-opacity="0" result="BackgroundImageFix"/>
<feBlend mode="normal" in="SourceGraphic" in2="BackgroundImageFix" result="shape"/>
<feColorMatrix in="SourceAlpha" type="matrix" values="0 0 0 0 0 0 0 0 0 0 0 0 0 0 0 0 0 0 127 0" result="hardAlpha"/>
<feOffset dx="-10" dy="10"/>
<feComposite in2="hardAlpha" operator="arithmetic" k2="-1" k3="1"/>
<feColorMatrix type="matrix" values="0 0 0 0 0.819608 0 0 0 0 0.235294 0 0 0 0 0.360784 0 0 0 1 0"/>
<feBlend mode="normal" in2="shape" result="effect1_innerShadow"/>
</filter>
<filter id="filter1_i" x="574.408" y="583.271" width="98.2773" height="98.0213" filterUnits="userSpaceOnUse" color-interpolation-filters="sRGB">
<feFlood flood-opacity="0" result="BackgroundImageFix"/>
<feBlend mode="normal" in="SourceGraphic" in2="BackgroundImageFix" result="shape"/>
<feColorMatrix in="SourceAlpha" type="matrix" values="0 0 0 0 0 0 0 0 0 0 0 0 0 0 0 0 0 0 127 0" result="hardAlpha"/>
<feOffset dx="-5" dy="5"/>
<feComposite in2="hardAlpha" operator="arithmetic" k2="-1" k3="1"/>
<feColorMatrix type="matrix" values="0 0 0 0 0.768627 0 0 0 0 0.768627 0 0 0 0 0.768627 0 0 0 1 0"/>
<feBlend mode="normal" in2="shape" result="effect1_innerShadow"/>
</filter>
<filter id="filter2_i" x="113.567" y="637.159" width="962.543" height="1175.33" filterUnits="userSpaceOnUse" color-interpolation-filters="sRGB">
<feFlood flood-opacity="0" result="BackgroundImageFix"/>
<feBlend mode="normal" in="SourceGraphic" in2="BackgroundImageFix" result="shape"/>
<feColorMatrix in="SourceAlpha" type="matrix" values="0 0 0 0 0 0 0 0 0 0 0 0 0 0 0 0 0 0 127 0" result="hardAlpha"/>
<feOffset dx="-75" dy="-75"/>
<feComposite in2="hardAlpha" operator="arithmetic" k2="-1" k3="1"/>
<feColorMatrix type="matrix" values="0 0 0 0 0.0156863 0 0 0 0 0.615686 0 0 0 0 0.741176 0 0 0 1 0"/>
<feBlend mode="normal" in2="shape" result="effect1_innerShadow"/>
</filter>
<filter id="filter3_i" x="85.0054" y="914.121" width="164.396" height="592.916" filterUnits="userSpaceOnUse" color-interpolation-filters="sRGB">
<feFlood flood-opacity="0" result="BackgroundImageFix"/>
<feBlend mode="normal" in="SourceGraphic" in2="BackgroundImageFix" result="shape"/>
<feColorMatrix in="SourceAlpha" type="matrix" values="0 0 0 0 0 0 0 0 0 0 0 0 0 0 0 0 0 0 127 0" result="hardAlpha"/>
<feOffset dx="30" dy="15"/>
<feComposite in2="hardAlpha" operator="arithmetic" k2="-1" k3="1"/>
<feColorMatrix type="matrix" values="0 0 0 0 1 0 0 0 0 1 0 0 0 0 1 0 0 0 1 0"/>
<feBlend mode="normal" in2="shape" result="effect1_innerShadow"/>
</filter>
<filter id="filter4_i" x="951.383" y="914.121" width="164.396" height="592.916" filterUnits="userSpaceOnUse" color-interpolation-filters="sRGB">
<feFlood flood-opacity="0" result="BackgroundImageFix"/>
<feBlend mode="normal" in="SourceGraphic" in2="BackgroundImageFix" result="shape"/>
<feColorMatrix in="SourceAlpha" type="matrix" values="0 0 0 0 0 0 0 0 0 0 0 0 0 0 0 0 0 0 127 0" result="hardAlpha"/>
<feOffset dx="-45" dy="15"/>
<feComposite in2="hardAlpha" operator="arithmetic" k2="-1" k3="1"/>
<feColorMatrix type="matrix" values="0 0 0 0 0.0156863 0 0 0 0 0.615686 0 0 0 0 0.741176 0 0 0 1 0"/>
<feBlend mode="normal" in2="shape" result="effect1_innerShadow"/>
</filter>
<filter id="filter5_i" x="24.7078" y="629.246" width="218.347" height="325.45" filterUnits="userSpaceOnUse" color-interpolation-filters="sRGB">
<feFlood flood-opacity="0" result="BackgroundImageFix"/>
<feBlend mode="normal" in="SourceGraphic" in2="BackgroundImageFix" result="shape"/>
<feColorMatrix in="SourceAlpha" type="matrix" values="0 0 0 0 0 0 0 0 0 0 0 0 0 0 0 0 0 0 127 0" result="hardAlpha"/>
<feOffset dx="30" dy="15"/>
<feComposite in2="hardAlpha" operator="arithmetic" k2="-1" k3="1"/>
<feColorMatrix type="matrix" values="0 0 0 0 1 0 0 0 0 1 0 0 0 0 1 0 0 0 1 0"/>
<feBlend mode="normal" in2="shape" result="effect1_innerShadow"/>
</filter>
<filter id="filter6_i" x="957.73" y="629.246" width="218.347" height="325.45" filterUnits="userSpaceOnUse" color-interpolation-filters="sRGB">
<feFlood flood-opacity="0" result="BackgroundImageFix"/>
<feBlend mode="normal" in="SourceGraphic" in2="BackgroundImageFix" result="shape"/>
<feColorMatrix in="SourceAlpha" type="matrix" values="0 0 0 0 0 0 0 0 0 0 0 0 0 0 0 0 0 0 127 0" result="hardAlpha"/>
<feOffset dx="-45" dy="15"/>
<feComposite in2="hardAlpha" operator="arithmetic" k2="-1" k3="1"/>
<feColorMatrix type="matrix" values="0 0 0 0 0.0156863 0 0 0 0 0.615686 0 0 0 0 0.741176 0 0 0 1 0"/>
<feBlend mode="normal" in2="shape" result="effect1_innerShadow"/>
</filter>
<filter id="filter7_i" x="287.004" y="949.444" width="624.205" height="553.924" filterUnits="userSpaceOnUse" color-interpolation-filters="sRGB">
<feFlood flood-opacity="0" result="BackgroundImageFix"/>
<feBlend mode="normal" in="SourceGraphic" in2="BackgroundImageFix" result="shape"/>
<feColorMatrix in="SourceAlpha" type="matrix" values="0 0 0 0 0 0 0 0 0 0 0 0 0 0 0 0 0 0 127 0" result="hardAlpha"/>
<feOffset dx="-20" dy="15"/>
<feComposite in2="hardAlpha" operator="arithmetic" k2="-1" k3="1"/>
<feColorMatrix type="matrix" values="0 0 0 0 0.0447222 0 0 0 0 0.161624 0 0 0 0 0.383333 0 0 0 1 0"/>
<feBlend mode="normal" in2="shape" result="effect1_innerShadow"/>
</filter>
<filter id="filter8_i" x="391.152" y="49.9976" width="466.356" height="200.73" filterUnits="userSpaceOnUse" color-interpolation-filters="sRGB">
<feFlood flood-opacity="0" result="BackgroundImageFix"/>
<feBlend mode="normal" in="SourceGraphic" in2="BackgroundImageFix" result="shape"/>
<feColorMatrix in="SourceAlpha" type="matrix" values="0 0 0 0 0 0 0 0 0 0 0 0 0 0 0 0 0 0 127 0" result="hardAlpha"/>
<feOffset dx="-50" dy="5"/>
<feComposite in2="hardAlpha" operator="arithmetic" k2="-1" k3="1"/>
<feColorMatrix type="matrix" values="0 0 0 0 0.819608 0 0 0 0 0.235294 0 0 0 0 0.360784 0 0 0 1 0"/>
<feBlend mode="normal" in2="shape" result="effect1_innerShadow"/>
</filter>
<filter id="filter9_i" x="386.971" y="989.01" width="426.842" height="163.012" filterUnits="userSpaceOnUse" color-interpolation-filters="sRGB">
<feFlood flood-opacity="0" result="BackgroundImageFix"/>
<feBlend mode="normal" in="SourceGraphic" in2="BackgroundImageFix" result="shape"/>
<feColorMatrix in="SourceAlpha" type="matrix" values="0 0 0 0 0 0 0 0 0 0 0 0 0 0 0 0 0 0 127 0" result="hardAlpha"/>
<feOffset dx="-10" dy="-10"/>
<feComposite in2="hardAlpha" operator="arithmetic" k2="-1" k3="1"/>
<feColorMatrix type="matrix" values="0 0 0 0 0.992157 0 0 0 0 0.756863 0 0 0 0 0.411765 0 0 0 1 0"/>
<feBlend mode="normal" in2="shape" result="effect1_innerShadow"/>
</filter>
<filter id="filter10_i" x="463.137" y="1064.98" width="101.553" height="18.9917" filterUnits="userSpaceOnUse" color-interpolation-filters="sRGB">
<feFlood flood-opacity="0" result="BackgroundImageFix"/>
<feBlend mode="normal" in="SourceGraphic" in2="BackgroundImageFix" result="shape"/>
<feColorMatrix in="SourceAlpha" type="matrix" values="0 0 0 0 0 0 0 0 0 0 0 0 0 0 0 0 0 0 127 0" result="hardAlpha"/>
<feOffset dx="3" dy="3"/>
<feComposite in2="hardAlpha" operator="arithmetic" k2="-1" k3="1"/>
<feColorMatrix type="matrix" values="0 0 0 0 1 0 0 0 0 1 0 0 0 0 1 0 0 0 1 0"/>
<feBlend mode="normal" in2="shape" result="effect1_innerShadow"/>
</filter>
<filter id="filter11_i" x="636.095" y="1064.98" width="101.553" height="18.9917" filterUnits="userSpaceOnUse" color-interpolation-filters="sRGB">
<feFlood flood-opacity="0" result="BackgroundImageFix"/>
<feBlend mode="normal" in="SourceGraphic" in2="BackgroundImageFix" result="shape"/>
<feColorMatrix in="SourceAlpha" type="matrix" values="0 0 0 0 0 0 0 0 0 0 0 0 0 0 0 0 0 0 127 0" result="hardAlpha"/>
<feOffset dx="-5" dy="3"/>
<feComposite in2="hardAlpha" operator="arithmetic" k2="-1" k3="1"/>
<feColorMatrix type="matrix" values="0 0 0 0 1 0 0 0 0 0.94902 0 0 0 0 0.764706 0 0 0 1 0"/>
<feBlend mode="normal" in2="shape" result="effect1_innerShadow"/>
</filter>
<filter id="filter12_i" x="463.137" y="1011.17" width="274.512" height="44.3139" filterUnits="userSpaceOnUse" color-interpolation-filters="sRGB">
<feFlood flood-opacity="0" result="BackgroundImageFix"/>
<feBlend mode="normal" in="SourceGraphic" in2="BackgroundImageFix" result="shape"/>
<feColorMatrix in="SourceAlpha" type="matrix" values="0 0 0 0 0 0 0 0 0 0 0 0 0 0 0 0 0 0 127 0" result="hardAlpha"/>
<feOffset dx="-5" dy="5"/>
<feComposite in2="hardAlpha" operator="arithmetic" k2="-1" k3="1"/>
<feColorMatrix type="matrix" values="0 0 0 0 1 0 0 0 0 0.950877 0 0 0 0 0.766667 0 0 0 1 0"/>
<feBlend mode="normal" in2="shape" result="effect1_innerShadow"/>
</filter>
<filter id="filter13_i" x="1283.5" y="539.54" width="185.652" height="185.169" filterUnits="userSpaceOnUse" color-interpolation-filters="sRGB">
<feFlood flood-opacity="0" result="BackgroundImageFix"/>
<feBlend mode="normal" in="SourceGraphic" in2="BackgroundImageFix" result="shape"/>
<feColorMatrix in="SourceAlpha" type="matrix" values="0 0 0 0 0 0 0 0 0 0 0 0 0 0 0 0 0 0 127 0" result="hardAlpha"/>
<feOffset dx="20" dy="-20"/>
<feComposite in2="hardAlpha" operator="arithmetic" k2="-1" k3="1"/>
<feColorMatrix type="matrix" values="0 0 0 0 0.819608 0 0 0 0 0.235294 0 0 0 0 0.360784 0 0 0 1 0"/>
<feBlend mode="normal" in2="shape" result="effect1_innerShadow"/>
</filter>
<filter id="filter14_d" x="14" y="466.156" width="1244.79" height="498.289" filterUnits="userSpaceOnUse" color-interpolation-filters="sRGB">
<feFlood flood-opacity="0" result="BackgroundImageFix"/>
<feColorMatrix in="SourceAlpha" type="matrix" values="0 0 0 0 0 0 0 0 0 0 0 0 0 0 0 0 0 0 127 0"/>
<feOffset dy="5"/>
<feColorMatrix type="matrix" values="0 0 0 0 0 0 0 0 0 0 0 0 0 0 0 0 0 0 0.25 0"/>
<feBlend mode="normal" in2="BackgroundImageFix" result="effect1_dropShadow"/>
<feBlend mode="normal" in="SourceGraphic" in2="effect1_dropShadow" result="shape"/>
</filter>
<filter id="filter15_i" x="14" y="466.156" width="373.392" height="493.289" filterUnits="userSpaceOnUse" color-interpolation-filters="sRGB">
<feFlood flood-opacity="0" result="BackgroundImageFix"/>
<feBlend mode="normal" in="SourceGraphic" in2="BackgroundImageFix" result="shape"/>
<feColorMatrix in="SourceAlpha" type="matrix" values="0 0 0 0 0 0 0 0 0 0 0 0 0 0 0 0 0 0 127 0" result="hardAlpha"/>
<feOffset dx="25" dy="35"/>
<feComposite in2="hardAlpha" operator="arithmetic" k2="-1" k3="1"/>
<feColorMatrix type="matrix" values="0 0 0 0 1 0 0 0 0 1 0 0 0 0 1 0 0 0 1 0"/>
<feBlend mode="normal" in2="shape" result="effect1_innerShadow"/>
</filter>
<filter id="filter16_i" x="447.506" y="466.156" width="373.392" height="493.289" filterUnits="userSpaceOnUse" color-interpolation-filters="sRGB">
<feFlood flood-opacity="0" result="BackgroundImageFix"/>
<feBlend mode="normal" in="SourceGraphic" in2="BackgroundImageFix" result="shape"/>
<feColorMatrix in="SourceAlpha" type="matrix" values="0 0 0 0 0 0 0 0 0 0 0 0 0 0 0 0 0 0 127 0" result="hardAlpha"/>
<feOffset dx="25" dy="35"/>
<feComposite in2="hardAlpha" operator="arithmetic" k2="-1" k3="1"/>
<feColorMatrix type="matrix" values="0 0 0 0 1 0 0 0 0 1 0 0 0 0 1 0 0 0 1 0"/>
<feBlend mode="normal" in2="shape" result="effect1_innerShadow"/>
</filter>
<filter id="filter17_i" x="885.399" y="466.156" width="373.392" height="493.289" filterUnits="userSpaceOnUse" color-interpolation-filters="sRGB">
<feFlood flood-opacity="0" result="BackgroundImageFix"/>
<feBlend mode="normal" in="SourceGraphic" in2="BackgroundImageFix" result="shape"/>
<feColorMatrix in="SourceAlpha" type="matrix" values="0 0 0 0 0 0 0 0 0 0 0 0 0 0 0 0 0 0 127 0" result="hardAlpha"/>
<feOffset dx="25" dy="35"/>
<feComposite in2="hardAlpha" operator="arithmetic" k2="-1" k3="1"/>
<feColorMatrix type="matrix" values="0 0 0 0 1 0 0 0 0 1 0 0 0 0 1 0 0 0 1 0"/>
<feBlend mode="normal" in2="shape" result="effect1_innerShadow"/>
</filter>
</defs>
</svg>
